<?xml version="1.0" encoding="utf-8"?>
<!-- Generator: Adobe Illustrator 27.0.1, SVG Export Plug-In . SVG Version: 6.00 Build 0)  -->
<svg version="1.1" id="_レイヤー_2" xmlns="http://www.w3.org/2000/svg" xmlns:xlink="http://www.w3.org/1999/xlink" x="0px"
	 y="0px" viewBox="0 0 704 179.6" style="enable-background:new 0 0 704 179.6;" xml:space="preserve">
<style type="text/css">
	.st0{fill:#BEB7BA;}
</style>
<g id="_レイヤー_1-2">
	<g>
		<path class="st0" d="M0,174.1c6.2-1.8,12.1-5.1,17.6-9.8s10.7-10.4,15.5-16.9c4.8-6.5,9.3-13.6,13.4-21.3s7.8-15.3,11.2-23.1
			s6.5-15.2,9.2-22.4c2.7-7.2,5.1-13.5,7.2-18.9s3.5-9,4.3-10.8c0.8-1.8,2.2-3.9,4.2-6.5c-1.9,2.1-4.4,4.6-7.4,7.5s-6.3,5.6-9.8,8.2
			s-7.2,4.8-10.9,6.6c-3.8,1.8-7.3,2.7-10.7,2.7c-2.2,0-4-0.5-5.3-1.5c-1.4-1-2.4-2.2-3.2-3.8c-0.8-1.5-1.3-3.2-1.6-5.2
			c-0.3-1.9-0.4-3.8-0.4-5.8c0-1.6,0.4-4,1.3-7.1s2-6.5,3.4-10.1c1.4-3.7,3-7.4,4.7-11.2c1.7-3.8,3.5-7.3,5.3-10.4
			c1.8-3.1,3.5-5.7,5.1-7.7c1.6-2,3-3,4-3c1,0,1.9,0.2,2.7,0.7C60.6,4.9,61,5.7,61,6.8c0,1.5-0.4,2.8-1.2,4s-2,1.9-3.6,2.2
			c-1.1,1.2-2.3,3.1-3.7,5.4c-1.4,2.4-2.7,5-4,8c-1.3,2.9-2.6,6-3.8,9.2s-2,6.2-2.6,9.1s-0.8,5.5-0.8,7.8s0.7,4.1,1.9,5.3
			s2.9,1.6,5.3,1.4s5.5-1.5,9.4-3.8c4-2.9,7.7-6,11.2-9.5c3.5-3.4,6.8-6.9,9.7-10.4s5.6-6.9,8-10.2c2.3-3.3,4.4-6.3,6.1-9
			c1.7-2.7,3.1-4.9,4.1-6.7s1.7-2.9,2-3.4c0.9-1.2,1.6-2.3,2.2-3.1c0.6-0.8,1.3-1.5,2.1-1.9c0.7-0.5,1.6-0.8,2.6-0.9
			c1-0.2,2.4-0.2,4.1-0.2c-0.6,2.1-1.5,4.4-2.6,7c-1.1,2.5-2.6,5.8-4.5,9.8c-1.9,4-4.3,9.1-7.2,15.4s-6.4,14.1-10.5,23.5
			S76.3,76.6,70.8,90s-11.9,29.2-19,47.6c-1.6,3.3-4,6.9-7,10.9c-3,4-6.3,7.9-9.8,11.7c-3.6,3.8-7.2,7.2-11,10.4s-7.3,5.5-10.6,7.1
			c-3.2,1.6-6.1,2.3-8.5,1.9C2.4,179.1,0.8,177.3,0,174.1L0,174.1z"/>
		<path class="st0" d="M101.4,80.6c0-1.2,0.3-2.8,1.1-5c0.7-2.2,1.6-4.5,2.8-7s2.4-5,3.9-7.6c1.4-2.6,2.9-4.9,4.4-7
			c1.5-2.1,2.9-3.8,4.2-5.2s2.5-2,3.5-2c2.2,0,3.3,1,3.3,3.2c0,0.9-0.2,1.7-0.5,2.3c-0.3,0.6-0.8,1.2-1.2,1.8s-1,1.1-1.5,1.6
			c-0.6,0.5-1,1.1-1.4,1.8c-0.7,1.2-1.6,2.8-2.6,4.8c-1,2-2,4-3,5.9c-1,1.9-1.8,3.6-2.5,5.1c-0.7,1.5-1.1,2.3-1.1,2.5v1.5
			c3.1-0.6,6-1.8,8.8-3.9c2.8-2.1,5.5-4.5,8-7.3c2.5-2.8,5-5.8,7.3-8.8c2.3-3.1,4.5-5.9,6.5-8.5c2-2.6,3.9-4.8,5.7-6.5
			s3.5-2.6,5-2.6c0,2.9-0.6,5.5-1.8,7.8s-2.4,4.7-3.8,6.9c-1.4,2.3-2.6,4.6-3.8,7s-1.8,5.1-1.8,8c0,1.2,0.8,2.4,2.3,3.3
			c1.5,1,3.3,1.8,5.3,2.5c2,0.7,3.9,1.2,5.8,1.6c1.9,0.4,3.2,0.6,3.9,0.7v3.1c-1.8,0.1-4,0.1-6.7,0.1c-2.7,0-5.3-0.3-8-0.9
			c-2.7-0.6-5.1-1.5-7.2-2.8c-2.1-1.3-3.6-3.2-4.3-5.7c-2,1.3-4,2.9-5.9,4.7s-3.8,3.5-5.8,5c-2,1.6-4.1,2.9-6.3,4
			c-2.2,1.1-4.6,1.6-7.2,1.6c-1.6,0-2.9-0.7-3.9-2C101.9,83.3,101.4,81.9,101.4,80.6L101.4,80.6z"/>
		<path class="st0" d="M173.8,69.8c-0.9,1.2-1.7,2.7-2.3,4.2c-0.6,1.6-1.3,3.1-2.1,4.4c-0.8,1.4-1.7,2.6-2.8,3.5
			c-1.1,0.9-2.5,1.4-4.3,1.4c-1.5,0-2.5-0.2-3.1-0.8s-0.8-1.5-0.8-3.1c0-1.9,0.5-3.9,1.6-6.2s2.3-4.5,3.8-6.6c1.5-2.2,3-4.2,4.6-6
			c1.6-1.9,2.9-3.4,3.9-4.6l21.7-46.9c0.6-1.3,1.5-2.6,3-3.8c1.4-1.2,2.9-1.8,4.5-1.8v3.9l-12.4,28.7v2.8c1.3,0,2.6-0.2,3.8-0.6
			s2.3-0.9,3.5-1.5c1.2-0.5,2.4-1,3.7-1.5c1.3-0.4,2.7-0.6,4.3-0.6c1.4,0.9,2.1,2.1,2.2,3.5s-0.3,2.8-1.1,4.5
			c-0.8,1.6-1.9,3.2-3.2,4.9c-1.4,1.6-2.8,3.2-4.3,4.8c-1.5,1.5-2.9,2.9-4.3,4c-1.4,1.2-2.4,2.1-3.1,2.7c-1.2,0.9-2.2,1.6-3.2,1.9
			c-1,0.3-1.8,0.7-2.5,1c-0.7,0.3-1.2,0.8-1.6,1.4s-0.5,1.7-0.5,3.2c0,2.2,0.6,4,1.8,5.3c1.2,1.4,2.7,2.4,4.6,3.2
			c1.9,0.8,4.1,1.3,6.4,1.6c2.4,0.3,4.8,0.4,7.2,0.4s4.7-0.1,6.9-0.3c2.2-0.2,4.1-0.4,5.6-0.6l1.4,1.4c-0.9,1.2-2.2,2.3-3.9,3.3
			s-3.7,2-5.7,2.8s-4.1,1.5-6.1,2c-2,0.5-3.7,0.8-5,0.8c-2.5,0-4.9-0.4-7.3-1.2s-4.5-2-6.4-3.5c-1.9-1.5-3.6-3.3-5.1-5.3
			C175.4,74.5,174.4,72.3,173.8,69.8L173.8,69.8z M196.9,43.5c-0.7,0-1.8,0.3-3.2,0.8c-1.4,0.5-2.8,1.2-4.2,2.1s-2.6,1.8-3.6,2.8
			s-1.5,2-1.5,3v0.8c0.6-0.2,1.5-0.6,2.9-1.2s2.8-1.2,4.2-2c1.4-0.8,2.7-1.8,3.8-2.9S196.9,44.7,196.9,43.5L196.9,43.5z"/>
		<path class="st0" d="M214.4,78.9c0.7-4.4,2-8.6,4-12.3s4.2-7,6.7-9.8c2.5-2.8,5.3-5.1,8.3-6.9s5.9-3,8.7-3.5s5.4-0.4,7.8,0.4
			c2.4,0.8,4.3,2.3,5.8,4.7c0,1.8-0.4,3.5-1.2,5.2s-1.7,3.3-2.7,4.9c-1,1.6-1.9,3.3-2.7,5c-0.8,1.7-1.2,3.6-1.2,5.5s0.4,3.7,1.4,4.9
			c0.9,1.2,2.5,1.8,4.8,1.8c1.9,0,3.7-0.3,5.4-0.8s3.5-0.8,5.3-0.8c0.3,0,0.8,0,1.6,0.1s1.2,0.1,1.5,0.1c-0.9,1.3-2.1,2.5-3.6,3.4
			s-3,1.7-4.7,2.4s-3.3,1.2-5.1,1.5c-1.8,0.3-3.4,0.5-4.9,0.5c-1.4,0-2.7-0.3-3.8-0.9c-1.1-0.6-2-1.4-2.8-2.5
			c-0.8-1-1.4-2.2-1.8-3.5c-0.4-1.3-0.6-2.6-0.6-3.8c-1.2,1.3-2.4,2.7-3.8,4.2c-1.4,1.4-2.8,2.8-4.3,3.9s-3.2,2.2-4.9,2.9
			s-3.6,1.2-5.4,1.2c-2,0-3.8-0.8-5.3-2.3C215.2,82.8,214.4,81,214.4,78.9L214.4,78.9z M222.2,75.2c0,0.6,0,1.3,0.1,2.1
			s0.5,1.3,1.5,1.5c1.9-0.5,4.2-1.5,6.7-3.1c2.5-1.6,4.8-3.5,7-5.6c2.2-2.2,4-4.4,5.5-6.9c1.5-2.5,2.2-4.8,2.2-7.1
			c0-0.2,0-0.4-0.1-0.8s-0.1-0.6-0.1-0.8c-2.7,0-5.4,0.5-8.1,1.6c-2.7,1.1-5.2,2.6-7.4,4.5c-2.2,1.9-4,4.1-5.3,6.6
			C222.9,69.9,222.2,72.5,222.2,75.2L222.2,75.2z"/>
		<path class="st0" d="M290.2,77.5c0-2.3,0.5-4.5,1.5-6.5c1-2,2-3.9,3.2-5.7c1.2-1.8,2.2-3.6,3.2-5.4c1-1.8,1.5-3.7,1.5-5.7
			c0-0.5,0-1-0.1-1.7c0-0.7-0.1-1.3-0.2-1.9c-0.1-0.6-0.4-1.2-0.7-1.6s-0.8-0.6-1.4-0.6c-0.1,0-0.2,0-0.4,0.1
			c-0.2,0-0.3,0.1-0.3,0.2c-1.1,1.5-2.4,3.2-3.9,5c-1.5,1.8-3.1,3.7-4.9,5.5c-1.7,1.8-3.4,3.5-5,5.2c-1.6,1.6-3.1,3-4.5,4.1
			c-0.9,0.9-2.2,2-3.8,3.5c-1.6,1.5-3.2,2.9-4.8,4.4c-1.6,1.4-3,2.7-4.2,3.8s-1.9,1.6-2,1.6l-5.4-4.6c0.7,0,1.4-0.2,2-0.5
			c0.7-0.3,1.3-0.7,1.9-1.1c4.7-3.1,8.9-6.7,12.7-10.8c3.8-4.1,7.5-8.4,11.2-13.1c0.2-0.2,0.6-0.9,1.2-2s1.4-2.4,2.2-3.9
			c0.8-1.4,1.6-2.9,2.3-4.3c0.8-1.4,1.4-2.6,1.8-3.5c0.5-1,0.8-1.8,0.9-2.5c0.1-0.6,0.2-1.1,0.4-1.5s0.3-0.6,0.6-0.8
			c0.3-0.2,1-0.2,2-0.2c0.2,0,0.5,0,1.1,0.1c0.6,0.1,1,0.2,1.1,0.2c1,2.1,1.9,4,2.7,5.6c0.8,1.6,1.4,3.2,2,4.6s1,2.9,1.2,4.4
			c0.3,1.5,0.4,3.1,0.4,4.9c-1,2.6-2.1,5.2-3.4,7.9s-2.3,5.2-3.2,7.7c-0.9,2.4-1.4,4.6-1.6,6.6c-0.2,1.9,0.2,3.5,1.3,4.6
			c1,1.1,2.9,1.7,5.4,1.8s6.1-0.6,10.8-2c1.2,0.6,1.4,1.4,0.4,2.3s-2.6,1.7-4.6,2.5s-4.3,1.4-6.8,1.9s-4.5,0.6-6.1,0.4
			c-1.5,0-2.7-0.2-3.7-0.8c-1-0.5-1.8-1.2-2.3-2.1c-0.6-0.9-1-1.8-1.3-2.9C290.3,79.8,290.1,78.7,290.2,77.5L290.2,77.5z"/>
		<path class="st0" d="M309.1,78.9c0-1.1,0.1-2.1,0.4-2.9s0.7-1.9,1.3-3.2c0.5-0.8,1.5-2.3,3-4.4c1.4-2.2,3-4.5,4.6-6.9
			s3.1-4.7,4.6-6.9c1.4-2.2,2.4-3.7,3-4.5c0.7-1,1.2-1.6,1.6-1.6c0.4-0.1,1.1-0.1,2.2-0.1c0.7,0,1.5,0,2.3,0.1
			c0.8,0.1,1.4,0.6,1.6,1.6c-1.1,2.7-2.6,5.2-4.4,7.6c-1.8,2.4-3.6,4.8-5.4,7.1c-1.8,2.3-3.3,4.8-4.6,7.2c-1.3,2.5-2,5.1-2,7.9
			c0.3,0,0.8,0,1.5,0.1s1.4,0.2,2.2,0.2c0.8,0.1,1.5,0.2,2.2,0.2c0.7,0.1,1.1,0.1,1.5,0c0.5-0.1,1.3-0.2,2.4-0.5
			c1.1-0.3,2.3-0.6,3.6-0.9s2.5-0.6,3.7-0.9c1.2-0.3,2-0.6,2.5-0.7c0,0.2,0,0.4,0.1,0.8s0.1,0.6,0.1,0.8c0,1.6-0.7,2.8-2.2,3.9
			c-1.5,1-3.1,1.8-5,2.4c-1.9,0.6-3.9,1-5.9,1.2s-3.5,0.3-4.6,0.3c-1.2,0-2.4-0.1-3.6-0.4c-1.2-0.3-2.3-0.7-3.2-1.3
			c-0.9-0.6-1.7-1.4-2.3-2.4S309.1,80.3,309.1,78.9L309.1,78.9z M343.2,10.2c1,0,2,0,2.8,0.1s1.6,0.3,2.2,0.6
			c0.6,0.3,1.1,0.8,1.5,1.4c0.4,0.6,0.6,1.5,0.6,2.6v1.5c0,0.5-0.1,1.1-0.2,1.6s-0.3,0.9-0.6,1.3c-0.3,0.4-0.8,0.5-1.5,0.5
			c-1.1,0-2-0.4-2.6-1.2c-0.7-0.8-1.1-1.7-1.5-2.8s-0.5-2.1-0.6-3.2S343.2,10.8,343.2,10.2L343.2,10.2z"/>
		<path class="st0" d="M432.7,115.3c0-6.1,0.1-11.9,0.3-17.3c0.2-5.5,0.6-11.3,1.4-17.6c-0.2-2.3-0.5-4.9-0.8-7.7
			c-0.3-2.8-0.8-5.5-1.5-8.2c-0.7-2.7-1.6-5.2-2.7-7.4c-1.1-2.3-2.6-4-4.4-5.3c-3.6,4.3-6.5,8.2-8.9,11.8s-4.2,6.7-5.6,9.4
			c-1.5,2.7-2.6,4.9-3.5,6.7s-1.6,3-2.3,3.7s-1.5,0.8-2.2,0.3s-1.8-1.6-3-3.3c1.4-2.3,3.2-5.2,5.4-8.8c2.2-3.6,4.6-7.7,7.2-12.1
			s5.4-9.2,8.3-14.1s5.8-9.8,8.6-14.6c2.9-4.8,5.6-9.4,8.1-13.8c2.6-4.4,4.9-8.2,6.9-11.5c0.7-0.3,1.3-0.5,1.7-0.5s0.7,0.1,0.9,0.2
			c0.2,0.2,0.3,0.3,0.4,0.5S447,6,447,6.1c0,2.1-0.5,4.7-1.6,7.6s-2.3,6-3.9,9.1c-1.5,3.1-3.1,6-4.7,8.7c-1.6,2.7-3,4.8-4.2,6.3
			c2.3-0.5,4.9-1.6,7.6-3c2.7-1.5,5.4-3.2,8.1-5s5.4-3.9,8-6s5.1-4,7.4-5.7c2.3-1.7,4.4-3.1,6.3-4.3c1.9-1.1,3.4-1.7,4.7-1.7
			c0.4,0,0.8,0.2,1.2,0.6s0.7,0.9,1,1.5s0.6,1.2,0.8,1.8s0.3,1,0.3,1.4c-1.3,0-3.1,0.7-5.4,2c-2.3,1.4-5.2,3.3-8.9,5.9
			c-3.7,2.6-8.1,5.7-13.4,9.3s-11.5,7.7-18.8,12.1c0.9,1.2,1.8,2.6,2.9,4.2s2,3.4,2.9,5.2s1.7,3.6,2.3,5.5c0.6,1.9,0.9,3.6,0.9,5.3
			c0.4,8,0.3,15.9-0.4,23.8c-0.6,7.9-1,15.6-1.3,23.2c3.2,0.7,5.5,1.5,6.7,2.3s1.9,1.6,1.8,2.2c-0.1,0.7-0.7,1.2-1.8,1.6
			c-1.1,0.4-2.5,0.5-4,0.4s-3.1-0.6-4.8-1.3S433.7,117,432.7,115.3L432.7,115.3z"/>
		<path class="st0" d="M455.9,78.9c0.7-4.4,2-8.6,4-12.3s4.2-7,6.7-9.8c2.5-2.8,5.3-5.1,8.3-6.9s5.9-3,8.7-3.5
			c2.8-0.5,5.4-0.4,7.8,0.4s4.3,2.3,5.8,4.7c0,1.8-0.4,3.5-1.2,5.2s-1.7,3.3-2.7,4.9s-1.9,3.3-2.7,5s-1.2,3.6-1.2,5.5
			s0.5,3.7,1.4,4.9s2.5,1.8,4.8,1.8c1.9,0,3.7-0.3,5.5-0.8s3.5-0.8,5.3-0.8c0.3,0,0.8,0,1.6,0.1s1.2,0.1,1.5,0.1
			c-0.9,1.3-2.1,2.5-3.6,3.4s-3,1.7-4.7,2.4s-3.3,1.2-5.1,1.5s-3.4,0.5-4.9,0.5c-1.4,0-2.7-0.3-3.8-0.9c-1.1-0.6-2-1.4-2.8-2.5
			c-0.8-1-1.4-2.2-1.8-3.5s-0.6-2.6-0.6-3.8c-1.2,1.3-2.4,2.7-3.8,4.2c-1.4,1.4-2.8,2.8-4.3,3.9s-3.2,2.2-4.9,2.9s-3.6,1.2-5.5,1.2
			c-2,0-3.8-0.8-5.3-2.3C456.6,82.8,455.8,81,455.9,78.9L455.9,78.9z M463.6,75.2c0,0.6,0,1.3,0.1,2.1s0.5,1.3,1.5,1.5
			c2-0.5,4.2-1.5,6.7-3.1c2.5-1.6,4.8-3.5,7-5.6c2.2-2.2,4-4.4,5.5-6.9s2.2-4.8,2.2-7.1c0-0.2,0-0.4-0.1-0.8s-0.1-0.6-0.1-0.8
			c-2.7,0-5.4,0.5-8.1,1.6c-2.7,1.1-5.2,2.6-7.4,4.5c-2.2,1.9-4,4.1-5.3,6.6C464.3,69.9,463.6,72.5,463.6,75.2L463.6,75.2z"/>
		<path class="st0" d="M531.6,77.5c0-2.3,0.5-4.5,1.5-6.5c1-2,2-3.9,3.2-5.7c1.2-1.8,2.2-3.6,3.2-5.4c1-1.8,1.5-3.7,1.5-5.7
			c0-0.5,0-1-0.1-1.7c0-0.7-0.1-1.3-0.2-1.9c-0.1-0.6-0.3-1.2-0.7-1.6c-0.3-0.4-0.8-0.6-1.3-0.6c-0.1,0-0.2,0-0.4,0.1
			c-0.2,0-0.3,0.1-0.3,0.2c-1.1,1.5-2.4,3.2-3.9,5c-1.5,1.8-3.2,3.7-4.9,5.5c-1.7,1.8-3.4,3.5-5,5.2c-1.6,1.6-3.1,3-4.5,4.1
			c-0.9,0.9-2.2,2-3.8,3.5c-1.6,1.5-3.2,2.9-4.8,4.4c-1.6,1.4-3,2.7-4.2,3.8s-1.9,1.6-2,1.6l-5.4-4.6c0.7,0,1.4-0.2,2-0.5
			c0.7-0.3,1.3-0.7,1.9-1.1c4.7-3.1,8.9-6.7,12.7-10.8s7.5-8.4,11.2-13.1c0.2-0.2,0.6-0.9,1.2-2s1.4-2.4,2.2-3.9
			c0.8-1.4,1.6-2.9,2.3-4.3c0.8-1.4,1.4-2.6,1.8-3.5c0.5-1,0.8-1.8,0.9-2.5c0.1-0.6,0.2-1.1,0.3-1.5s0.3-0.6,0.6-0.8s1-0.2,2-0.2
			c0.2,0,0.5,0,1.1,0.1c0.6,0.1,1,0.2,1.1,0.2c1,2.1,1.9,4,2.7,5.6c0.8,1.6,1.4,3.2,2,4.6s1,2.9,1.2,4.4c0.3,1.5,0.4,3.1,0.4,4.9
			c-1,2.6-2.2,5.2-3.4,7.9s-2.3,5.2-3.2,7.7c-0.9,2.4-1.4,4.6-1.6,6.6c-0.2,1.9,0.2,3.5,1.3,4.6c1,1.1,2.8,1.7,5.4,1.8
			c2.5,0.1,6.2-0.6,10.8-2c1.2,0.6,1.4,1.4,0.3,2.3s-2.6,1.7-4.6,2.5s-4.3,1.4-6.8,1.9s-4.5,0.6-6.2,0.4c-1.5,0-2.7-0.2-3.7-0.8
			c-1-0.5-1.8-1.2-2.3-2.1c-0.6-0.9-1-1.8-1.3-2.9C531.7,79.8,531.5,78.7,531.6,77.5L531.6,77.5z"/>
		<path class="st0" d="M552.1,80.6c0-1.2,0.3-2.8,1-5s1.6-4.5,2.8-7s2.4-5,3.9-7.6c1.4-2.6,2.9-4.9,4.4-7c1.5-2.1,2.9-3.8,4.2-5.2
			c1.3-1.3,2.5-2,3.5-2c2.2,0,3.3,1,3.3,3.2c0,0.9-0.2,1.7-0.5,2.3c-0.3,0.6-0.8,1.2-1.2,1.8s-1,1.1-1.5,1.6c-0.5,0.5-1,1.1-1.4,1.8
			c-0.7,1.2-1.6,2.8-2.6,4.8c-1,2-2,4-3,5.9s-1.8,3.6-2.5,5.1c-0.7,1.5-1,2.3-1,2.5v1.5c3-0.6,6-1.8,8.8-3.9c2.8-2.1,5.5-4.5,8-7.3
			c2.5-2.8,5-5.8,7.3-8.8c2.3-3.1,4.5-5.9,6.5-8.5c2-2.6,3.9-4.8,5.7-6.5s3.5-2.6,5-2.6c0,2.9-0.6,5.5-1.8,7.8s-2.4,4.7-3.8,6.9
			c-1.4,2.3-2.6,4.6-3.8,7s-1.8,5.1-1.8,8c0,1.2,0.8,2.4,2.3,3.3c1.5,1,3.3,1.8,5.3,2.5c2,0.7,3.9,1.2,5.8,1.6
			c1.9,0.4,3.2,0.6,3.9,0.7v3.1c-1.8,0.1-4,0.1-6.7,0.1s-5.3-0.3-8-0.9c-2.7-0.6-5.1-1.5-7.2-2.8s-3.6-3.2-4.3-5.7
			c-2,1.3-4,2.9-5.9,4.7s-3.8,3.5-5.8,5s-4.1,2.9-6.3,4c-2.2,1.1-4.6,1.6-7.2,1.6c-1.6,0-2.9-0.7-3.9-2
			C552.6,83.3,552,81.9,552.1,80.6L552.1,80.6z"/>
		<path class="st0" d="M607.5,75.8c0-1,0.2-2.2,0.8-3.5s1.3-2.1,2.4-2.5c0.2-0.1,0.4-0.1,0.6-0.2s0.5-0.1,0.8-0.2
			c0.3-0.1,0.6-0.1,0.8-0.1v6.4c0.5-0.5,1.2-1.3,2.2-2.6s2-2.6,3-4c1-1.4,2-2.8,2.9-4.2c0.9-1.3,1.5-2.3,1.8-2.9l27.3-53.2
			c0.9-0.9,1.6-1.5,2.2-1.7c0.6-0.2,1.2-0.1,1.9,0.3s1.4,1.4,2,3.1l-16.6,33.5v1.4c2.2,0.3,4.2,0.8,6.1,1.3s3.5,1.4,4.9,2.5
			c1.4,1.1,2.4,2.4,3.2,4c0.8,1.6,1.2,3.5,1.2,5.8c0,3.8-1,7.4-3,10.7s-4.5,6.2-7.7,8.7s-6.6,4.4-10.4,5.9s-7.4,2.2-11,2.2
			c-1.6,0-3.2-0.2-5-0.6s-3.5-1.1-5-2c-1.5-0.9-2.8-2-3.9-3.4C608,79.2,607.5,77.6,607.5,75.8L607.5,75.8z M640.9,52.8
			c-1.1,0-2.3,0.5-3.6,1.5c-1.3,1-2.6,2.3-3.8,3.9c-1.2,1.6-2.5,3.4-3.6,5.4c-1.2,2-2.2,4-3.1,5.9c-0.9,1.9-1.6,3.8-2.2,5.5
			s-0.8,3.1-0.8,4.1c2.2,0,4.7-0.5,7.4-1.5c2.7-1,5.3-2.4,7.7-4c2.4-1.7,4.4-3.6,6-5.9c1.6-2.2,2.4-4.5,2.4-7c0-2.1-0.4-4-1.3-5.6
			C645.1,53.7,643.4,52.9,640.9,52.8L640.9,52.8z"/>
		<path class="st0" d="M661.2,80.4c-1.3-3-1.9-5.9-1.8-8.7c0.2-2.8,0.8-5.6,1.9-8.1c1.1-2.5,2.6-4.8,4.5-6.9s3.8-3.9,5.9-5.4
			s4.2-2.7,6.4-3.5s4-1.1,5.7-1s2.9,0.7,3.9,1.8c0.9,1.1,1.2,2.8,0.9,5c0,3-1,5.7-2.9,8c-1.9,2.3-4,4.3-6.3,6.1
			c-2.3,1.8-4.4,3.4-6.3,4.9c-1.9,1.4-2.9,2.8-2.9,4c0,0.7,0.4,1.2,1.2,1.6s1.8,0.7,2.9,0.9c1.1,0.2,2.2,0.3,3.3,0.4
			s1.9,0.2,2.3,0.2c7.3-1.6,12.8-2.5,16.5-2.9c3.7-0.3,6-0.3,6.9,0.1c0.9,0.4,0.8,1.1-0.5,2c-1.3,0.9-3.3,1.8-5.9,2.8
			c-2.7,1-5.7,1.9-9.3,2.6s-7,1.2-10.4,1.3c-3.4,0.1-6.6-0.2-9.5-1C664.7,84.1,662.5,82.6,661.2,80.4L661.2,80.4z M681.7,53.7
			c-1.6,0-3,0.4-4.5,1.3c-1.4,0.9-2.7,1.9-3.8,3.2s-2.1,2.7-2.9,4.2c-0.8,1.5-1.4,2.9-1.8,4.3c0.2,0.1,0.3,0.1,0.3,0.1h0.3
			c1.1,0,2.3-0.5,3.8-1.4s2.7-2.1,4-3.5s2.3-2.8,3.2-4.3C681.2,56.2,681.7,54.8,681.7,53.7L681.7,53.7z"/>
	</g>
</g>
</svg>
